<?xml version="1.0" encoding="utf-8"?>
<!-- Generator: Adobe Illustrator 19.0.0, SVG Export Plug-In . SVG Version: 6.00 Build 0)  -->
<svg version="1.1" id="레이어_1" xmlns="http://www.w3.org/2000/svg" xmlns:xlink="http://www.w3.org/1999/xlink" x="0px"
	 y="0px" viewBox="0 0 142.3 142.3" style="enable-background:new 0 0 142.3 142.3;" xml:space="preserve">
<style type="text/css">
	.st0{fill:#FFFFFF;}
</style>
<path id="XMLID_6_" class="st0" d="M128.7,57.5H84.8V13.7C84.8,6.1,78.7,0,71.2,0h0c-7.5,0-13.7,6.1-13.7,13.7v43.8H13.7
	C6.1,57.5,0,63.6,0,71.2v0c0,7.5,6.1,13.7,13.7,13.7h43.8v43.8c0,7.5,6.1,13.7,13.7,13.7h0c7.5,0,13.7-6.1,13.7-13.7V84.8h43.8
	c7.5,0,13.7-6.1,13.7-13.7v0C142.3,63.6,136.2,57.5,128.7,57.5z"/>
</svg>
