<?xml version="1.0" encoding="utf-8"?>
<!-- Generator: Adobe Illustrator 19.0.0, SVG Export Plug-In . SVG Version: 6.00 Build 0)  -->
<svg version="1.1" id="레이어_1" xmlns="http://www.w3.org/2000/svg" xmlns:xlink="http://www.w3.org/1999/xlink" x="0px"
	 y="0px" viewBox="0 0 108.7 108.7" style="enable-background:new 0 0 108.7 108.7;" xml:space="preserve">
<style type="text/css">
	.st0{fill:#FFFFFF;}
</style>
<path id="XMLID_6_" class="st0" d="M104.6,85.3l-31-31l31-31c5.3-5.3,5.3-14,0-19.3l0,0c-5.3-5.3-14-5.3-19.3,0l-31,31l-31-31
	C18-1.3,9.3-1.3,4,4l0,0c-5.3,5.3-5.3,14,0,19.3l31,31l-31,31c-5.3,5.3-5.3,14,0,19.3l0,0c5.3,5.3,14,5.3,19.3,0l31-31l31,31
	c5.3,5.3,14,5.3,19.3,0l0,0C110,99.3,110,90.7,104.6,85.3z"/>
</svg>
