<?xml version="1.0" encoding="utf-8"?>
<!-- Generator: Adobe Illustrator 19.0.0, SVG Export Plug-In . SVG Version: 6.00 Build 0)  -->
<svg version="1.1" id="레이어_1" xmlns="http://www.w3.org/2000/svg" xmlns:xlink="http://www.w3.org/1999/xlink" x="0px"
	 y="0px" viewBox="0 0 112.6 114.7" style="enable-background:new 0 0 112.6 114.7;" xml:space="preserve">
<style type="text/css">
	.st0{clip-path:url(#SVGID_2_);}
	.st1{clip-path:url(#SVGID_4_);fill:#FFFFFF;}
	.st2{clip-path:url(#SVGID_6_);fill:#FFFFFF;}
	.st3{clip-path:url(#SVGID_8_);fill:#FFFFFF;}
	.st4{clip-path:url(#SVGID_10_);fill:#FFFFFF;}
	.st5{clip-path:url(#SVGID_12_);fill:#FFFFFF;}
	.st6{clip-path:url(#SVGID_14_);fill:#FFFFFF;}
	.st7{clip-path:url(#SVGID_2_);fill:#FFFFFF;}
	.st8{opacity:0.5;clip-path:url(#SVGID_2_);}
	.st9{clip-path:url(#SVGID_16_);fill:#FFFFFF;}
	.st10{clip-path:url(#SVGID_18_);fill:#FFFFFF;}
	.st11{fill:none;}
</style>
<g>
	<defs>
		<rect id="SVGID_1_" width="112.6" height="114.7"/>
	</defs>
	<clipPath id="SVGID_2_">
		<use xlink:href="#SVGID_1_"  style="overflow:visible;"/>
	</clipPath>
	<g class="st0">
		<g>
			<defs>
				<rect id="SVGID_3_" x="88.5" y="42" width="1.7" height="0"/>
			</defs>
			<clipPath id="SVGID_4_">
				<use xlink:href="#SVGID_3_"  style="overflow:visible;"/>
			</clipPath>
			<path class="st1" d="M90.3,42h-0.3c-0.3,0-0.5,0-0.6,0c-0.3,0-0.5,0-0.8,0v0c0.4,0,0.7,0,1.1,0C89.9,42,90.1,42,90.3,42"/>
		</g>
	</g>
	<g class="st0">
		<g>
			<defs>
				<rect id="SVGID_5_" x="90.6" y="42" width="0.9" height="0"/>
			</defs>
			<clipPath id="SVGID_6_">
				<use xlink:href="#SVGID_5_"  style="overflow:visible;"/>
			</clipPath>
			<path class="st2" d="M91.5,42h-0.4c-0.2,0-0.3,0-0.4,0h0.2C91.1,42,91.3,42,91.5,42"/>
		</g>
	</g>
	<g class="st0">
		<g>
			<defs>
				<rect id="SVGID_7_" x="93.7" y="42.1" width="0.9" height="0"/>
			</defs>
			<clipPath id="SVGID_8_">
				<use xlink:href="#SVGID_7_"  style="overflow:visible;"/>
			</clipPath>
			<path class="st3" d="M94.6,42.1h-0.2c-0.2,0-0.4,0-0.6,0h0.4C94.3,42.1,94.4,42.1,94.6,42.1"/>
		</g>
	</g>
	<g class="st0">
		<g>
			<defs>
				<rect id="SVGID_9_" x="96.3" y="42.1" width="1.2" height="0"/>
			</defs>
			<clipPath id="SVGID_10_">
				<use xlink:href="#SVGID_9_"  style="overflow:visible;"/>
			</clipPath>
			<path class="st4" d="M97.5,42.1H97c-0.2,0-0.4,0-0.7,0h0.5C97.1,42.1,97.3,42.1,97.5,42.1"/>
		</g>
	</g>
	<g class="st0">
		<g>
			<defs>
				<rect id="SVGID_11_" x="97.5" y="42.1" width="1.2" height="0"/>
			</defs>
			<clipPath id="SVGID_12_">
				<use xlink:href="#SVGID_11_"  style="overflow:visible;"/>
			</clipPath>
			<path class="st5" d="M98.7,42.1h-0.5c-0.2,0-0.5,0-0.7,0h0.6C98.3,42.1,98.5,42.1,98.7,42.1"/>
		</g>
	</g>
	<g class="st0">
		<g>
			<defs>
				<rect id="SVGID_13_" x="101.6" y="42.1" width="0.9" height="0"/>
			</defs>
			<clipPath id="SVGID_14_">
				<use xlink:href="#SVGID_13_"  style="overflow:visible;"/>
			</clipPath>
			<path class="st6" d="M102.5,42.1h-0.6c-0.1,0-0.2,0-0.3,0C101.9,42.1,102.2,42.1,102.5,42.1"/>
		</g>
	</g>
	<path class="st7" d="M104.6,58.9c0-8.9,0-16.2,0-16.7c-0.3,0-1.1,0-2.1,0h-0.6c-0.1,0-0.2,0-0.3,0c-0.1,0-0.2,0-0.3,0
		c-0.2,0-0.4,0-0.5,0c-0.6,0-1.3,0-2,0h-0.5c-0.2,0-0.5,0-0.7,0H97c-0.2,0-0.4,0-0.7,0c-0.3,0-0.5,0-0.8,0c-0.3,0-0.6,0-0.9,0h-0.2
		c-0.2,0-0.4,0-0.6,0c-0.2,0-0.4,0-0.6,0c-0.3,0-0.7,0-1,0c-0.2,0-0.4,0-0.6,0h-0.4c-0.2,0-0.3,0-0.4,0c-0.1,0-0.3,0-0.4,0h-0.3
		c-0.3,0-0.5,0-0.6,0c-0.3,0-0.5,0-0.8,0c-7.8-0.1-14.2,2.7-19.2,8.7C63.1,58.3,56.9,66,50.8,73.6c-0.9,1.1-2,2.5-3.1,3.9L44,74.4
		c-5.2-4.5-11-7.9-18.1-8.4c-6.5-0.5-12.3,1.3-17.1,5.5C3.2,76.2,0.2,82.2,0,89.8c-0.1,5.4,1.2,10.2,4.2,14.4
		c4.7,6.6,11,10.2,19.3,10.5c8.2,0.2,14.8-2.6,19.9-8.9C49.2,98.8,52,95,57.3,88.3c0.4-0.5,0.8-1,1.2-1.5c0,0,0.1-0.1,0.1-0.1
		c2.3-2.9,4.5-5.7,6.2-7.7l8.9-11.2c4-4.9,6.1-8.9,15-9.1c0,5.6,0,11.5,0.1,17.1c-2.5,0-5,0-7.5,0c-8.8,0-16,7.2-16,16.1
		c0.7,0,12.9,0,23.5,0c8.2,0,15.4,0,16.1,0c0-0.5,0-7.5,0-16.1C104.6,70.5,104.6,64.4,104.6,58.9 M31.6,98.1
		c-2.6,3-7.8,3.6-11.5,1.7c-4.3-2.1-6.7-6.3-6.1-10.7c0.6-4.7,3.7-7.6,8.1-8.9c5.3-1.6,8.4,1.9,12.1,4.3c1.7,1.2,3.2,2.7,4.9,4.2
		C36.6,91.8,34.3,95.1,31.6,98.1"/>
	<path class="st7" d="M89.9,42c-0.3,0-0.5,0-0.6,0h0.3C89.7,42,89.8,42,89.9,42"/>
	<path class="st7" d="M91.1,42c-0.2,0-0.3,0-0.4,0h0.2C90.9,42,91,42,91.1,42"/>
	<path class="st7" d="M94.4,42.1c-0.2,0-0.4,0-0.6,0h0.4C94.2,42.1,94.3,42.1,94.4,42.1"/>
	<path class="st7" d="M97,42.1c-0.2,0-0.4,0-0.7,0h0.5C96.9,42.1,96.9,42.1,97,42.1"/>
	<path class="st7" d="M98.3,42.1c-0.2,0-0.5,0-0.7,0h0.6C98.2,42.1,98.2,42.1,98.3,42.1"/>
	<path class="st7" d="M112.6,16.5c0,9.5-7.5,17.2-16.8,17.2H72.6V0h15.9v16.5H112.6z"/>
	<path class="st7" d="M40.5,42.5v18.9H0.1V47.6h24.2V25.7C33.8,25.7,40.5,33.2,40.5,42.5"/>
	<path class="st7" d="M64.5,0.1v34.2c0,8.9-5.4,13.4-14.3,13.4V17.3H24.3V0.1H64.5z"/>
	<g class="st8">
		<g>
			<defs>
				<rect id="SVGID_15_" x="88.6" y="92" width="16.1" height="0"/>
			</defs>
			<clipPath id="SVGID_16_">
				<use xlink:href="#SVGID_15_"  style="overflow:visible;"/>
			</clipPath>
			<path class="st9" d="M104.6,92H88.6v0C96.7,92,104,92,104.6,92"/>
		</g>
	</g>
	<g class="st8">
		<g>
			<defs>
				<rect id="SVGID_17_" x="104.6" y="76" width="0" height="16.1"/>
			</defs>
			<clipPath id="SVGID_18_">
				<use xlink:href="#SVGID_17_"  style="overflow:visible;"/>
			</clipPath>
			<path class="st10" d="M104.7,76V92h0C104.6,91.6,104.6,84.6,104.7,76L104.7,76z"/>
		</g>
	</g>
</g>
<rect class="st11" width="112.6" height="114.7"/>
</svg>
