<?xml version="1.0" encoding="utf-8"?>
<!-- Generator: Adobe Illustrator 19.0.0, SVG Export Plug-In . SVG Version: 6.00 Build 0)  -->
<svg version="1.1" id="레이어_1" xmlns="http://www.w3.org/2000/svg" xmlns:xlink="http://www.w3.org/1999/xlink" x="0px"
	 y="0px" viewBox="-226 349.6 142.3 142.3" style="enable-background:new -226 349.6 142.3 142.3;" xml:space="preserve">
<style type="text/css">
	.st0{fill:#ED6E2B;}
</style>
<path id="XMLID_6_" class="st0" d="M-97.3,407.1h-43.9v-43.8c0-7.6-6.1-13.7-13.6-13.7l0,0c-7.5,0-13.7,6.1-13.7,13.7v43.8h-43.8
	c-7.6,0-13.7,6.1-13.7,13.7l0,0c0,7.5,6.1,13.7,13.7,13.7h43.8v43.8c0,7.5,6.1,13.7,13.7,13.7l0,0c7.5,0,13.7-6.1,13.7-13.7v-43.9
	h43.8c7.5,0,13.7-6.1,13.7-13.7l0,0C-83.7,413.2-89.8,407.1-97.3,407.1z"/>
</svg>
