<?xml version="1.0" encoding="utf-8"?>
<!-- Generator: Adobe Illustrator 19.0.0, SVG Export Plug-In . SVG Version: 6.00 Build 0)  -->
<svg version="1.1" id="레이어_1" xmlns="http://www.w3.org/2000/svg" xmlns:xlink="http://www.w3.org/1999/xlink" x="0px"
	 y="0px" viewBox="-243 366.2 108.7 108.7" style="enable-background:new -243 366.2 108.7 108.7;" xml:space="preserve">
<style type="text/css">
	.st0{fill:#A0C31B;}
</style>
<path id="XMLID_6_" class="st0" d="M-138.4,451.5l-31-31l31-31c5.3-5.3,5.3-14,0-19.3l0,0c-5.3-5.3-14-5.3-19.3,0l-31,31l-31-31
	c-5.3-5.3-14-5.3-19.3,0l0,0c-5.3,5.3-5.3,14,0,19.3l31,31l-31,31c-5.3,5.3-5.3,14,0,19.3l0,0c5.3,5.3,14,5.3,19.3,0l31-31l31,31
	c5.3,5.3,14,5.3,19.3,0l0,0C-133,465.5-133,456.9-138.4,451.5z"/>
</svg>
