<?xml version="1.0" encoding="utf-8"?>
<!-- Generator: Adobe Illustrator 19.0.0, SVG Export Plug-In . SVG Version: 6.00 Build 0)  -->
<svg version="1.1" id="레이어_1" xmlns="http://www.w3.org/2000/svg" xmlns:xlink="http://www.w3.org/1999/xlink" x="0px"
	 y="0px" viewBox="0 0 688.9 688.9" style="enable-background:new 0 0 688.9 688.9;" xml:space="preserve">
<style type="text/css">
	.st0{fill:#FFFFFF;}
	.st1{fill:#ED6E2B;}
	.st2{fill:#9FC33B;}
</style>
<path id="XMLID_7_" class="st0" d="M344.5,688.9c-92,0-178.5-35.8-243.6-100.9C35.8,523,0,436.5,0,344.5s35.8-178.5,100.9-243.6
	C165.9,35.8,252.4,0,344.5,0C436.5,0,523,35.8,588,100.9c65.1,65.1,100.9,151.6,100.9,243.6S653.1,523,588,588
	C523,653.1,436.5,688.9,344.5,688.9z M344.5,1C155.1,1,1,155.1,1,344.5s154.1,343.4,343.4,343.4s343.4-154.1,343.4-343.4
	S533.8,1,344.5,1z"/>
<circle id="XMLID_2_" class="st1" cx="27.5" cy="460.9" r="6.5"/>
<circle id="XMLID_4_" class="st2" cx="440.7" cy="20.4" r="6.5"/>
</svg>
