<?xml version="1.0" encoding="utf-8"?>
<!-- Generator: Adobe Illustrator 19.0.0, SVG Export Plug-In . SVG Version: 6.00 Build 0)  -->
<svg version="1.1" id="레이어_1" xmlns="http://www.w3.org/2000/svg" xmlns:xlink="http://www.w3.org/1999/xlink" x="0px"
	 y="0px" viewBox="0 0 49.6 49.6" style="enable-background:new 0 0 49.6 49.6;" xml:space="preserve">
<style type="text/css">
	.st0{fill:#606060;}
</style>
<g>
	<path class="st0" d="M24.8,0C11.1,0,0,11.1,0,24.8c0,13.7,11.1,24.8,24.8,24.8c13.7,0,24.8-11.1,24.8-24.8C49.6,11.1,38.5,0,24.8,0
		z M24.8,45.6C13.3,45.6,4,36.3,4,24.8S13.3,4,24.8,4c11.5,0,20.8,9.3,20.8,20.8S36.3,45.6,24.8,45.6z"/>
	<path class="st0" d="M26.8,25.9V12.7c0-1.1-0.9-2-2-2c-1.1,0-2,0.9-2,2v14.1c0,0.6,0.2,1.1,0.6,1.5l6.2,5.8
		c0.4,0.4,0.9,0.5,1.4,0.5c0.5,0,1.1-0.2,1.5-0.6c0.8-0.8,0.7-2.1-0.1-2.8L26.8,25.9z"/>
</g>
</svg>
