<?xml version="1.0" encoding="utf-8"?>
<!-- Generator: Adobe Illustrator 19.0.0, SVG Export Plug-In . SVG Version: 6.00 Build 0)  -->
<svg version="1.1" id="레이어_1" xmlns="http://www.w3.org/2000/svg" xmlns:xlink="http://www.w3.org/1999/xlink" x="0px"
	 y="0px" viewBox="0 0 112.6 114.7" style="enable-background:new 0 0 112.6 114.7;" xml:space="preserve">
<style type="text/css">
	.st0{clip-path:url(#SVGID_2_);fill:#ED6E2C;}
	.st1{clip-path:url(#SVGID_2_);}
	.st2{clip-path:url(#SVGID_4_);fill:#70C9E6;}
	.st3{clip-path:url(#SVGID_6_);fill:#70C9E6;}
	.st4{clip-path:url(#SVGID_8_);fill:#F5AE19;}
	.st5{clip-path:url(#SVGID_2_);fill:#5EB531;}
	.st6{clip-path:url(#SVGID_2_);fill:#29B9ED;}
	.st7{clip-path:url(#SVGID_10_);fill:#71C9E6;}
	.st8{clip-path:url(#SVGID_12_);fill:#71C9E6;}
	.st9{clip-path:url(#SVGID_14_);fill:#F5AE19;}
	.st10{clip-path:url(#SVGID_16_);fill:#F5AE19;}
	.st11{clip-path:url(#SVGID_18_);fill:#A0C31E;}
	.st12{clip-path:url(#SVGID_20_);fill:#A0C31E;}
	.st13{clip-path:url(#SVGID_22_);fill:#3CBEE9;}
	.st14{fill:none;}
</style>
<g>
	<defs>
		<rect id="SVGID_1_" width="112.6" height="114.7"/>
	</defs>
	<clipPath id="SVGID_2_">
		<use xlink:href="#SVGID_1_"  style="overflow:visible;"/>
	</clipPath>
	<path class="st0" d="M58.5,86.7c-6.1,7.7-8.8,11.5-15.1,19.1c-5.1,6.2-11.7,9.1-19.9,8.9c-8.3-0.2-14.7-3.9-19.3-10.5
		c-3-4.2-4.3-9-4.2-14.4c0.2-7.6,3.2-13.7,8.7-18.4c4.8-4.1,10.6-5.9,17.1-5.5c7.2,0.5,12.9,3.9,18.1,8.4L58.5,86.7 M39.1,88.7
		c-1.7-1.5-3.2-3-4.9-4.2c-3.6-2.4-6.8-5.9-12.1-4.3c-4.4,1.3-7.5,4.2-8.1,8.9c-0.6,4.5,1.7,8.6,6.1,10.7c3.7,1.8,8.9,1.2,11.5-1.7
		C34.3,95.1,36.6,91.8,39.1,88.7"/>
	<g class="st1">
		<g>
			<defs>
				<rect id="SVGID_3_" x="88.5" y="42" width="16.1" height="0.2"/>
			</defs>
			<clipPath id="SVGID_4_">
				<use xlink:href="#SVGID_3_"  style="overflow:visible;"/>
			</clipPath>
			<path class="st2" d="M104.7,42.2c0,0-10.4-0.1-16.1-0.2v0c0.3,0,0.5,0,0.8,0C90.5,42,103.4,42.2,104.7,42.2"/>
		</g>
	</g>
	<g class="st1">
		<g>
			<defs>
				<rect id="SVGID_5_" x="88.5" y="58.8" width="16.1" height="33.2"/>
			</defs>
			<clipPath id="SVGID_6_">
				<use xlink:href="#SVGID_5_"  style="overflow:visible;"/>
			</clipPath>
			<path class="st3" d="M89.2,58.8c-0.2,0-0.5,0-0.7,0c0,11.8,0.1,25,0.1,33.2h16.1c0-0.7,0-18.9,0-33.1
				C91.3,58.9,101.8,58.8,89.2,58.8"/>
		</g>
	</g>
	<g class="st1">
		<g>
			<defs>
				<rect id="SVGID_7_" x="39.1" y="42" width="49.4" height="55.5"/>
			</defs>
			<clipPath id="SVGID_8_">
				<use xlink:href="#SVGID_7_"  style="overflow:visible;"/>
			</clipPath>
			<path class="st4" d="M88.5,42c-7.8-0.1-14.2,2.7-19.2,8.7C63.1,58.3,56.9,66,50.8,73.6c-3.2,4-8.4,11-11.6,15l11,8.8
				c3.5-4.5,10.7-13.6,14.6-18.3l8.9-11.2c4-4.9,6.1-8.9,15-9.1C88.5,52.6,88.5,46.6,88.5,42"/>
		</g>
	</g>
	<path class="st5" d="M89.3,42c-0.3,0-0.5,0-0.8,0c0,4.6,0,10.6,0,16.9c0.2,0,0.5,0,0.7,0c12.6,0,2.1,0.1,15.4,0.1
		c0-8.9,0-16.3,0-16.8C103.4,42.2,90.5,42,89.3,42"/>
	<rect x="72.6" y="16.5" class="st6" width="15.9" height="17.2"/>
	<g class="st1">
		<g>
			<defs>
				<rect id="SVGID_9_" x="88.5" y="16.5" width="24.1" height="17.2"/>
			</defs>
			<clipPath id="SVGID_10_">
				<use xlink:href="#SVGID_9_"  style="overflow:visible;"/>
			</clipPath>
			<path class="st7" d="M88.5,16.5L88.5,16.5L88.5,16.5l0,17.2h2.2h5.1c9.3,0,16.8-7.7,16.8-17.2H88.5z"/>
		</g>
	</g>
	<g class="st1">
		<g>
			<defs>
				<rect id="SVGID_11_" x="72.6" width="15.9" height="16.5"/>
			</defs>
			<clipPath id="SVGID_12_">
				<use xlink:href="#SVGID_11_"  style="overflow:visible;"/>
			</clipPath>
			<polygon class="st8" points="88.5,13.2 88.5,16.5 88.5,16.5 88.5,0 72.6,0 72.6,16.5 88.5,16.5 			"/>
		</g>
	</g>
	<g class="st1">
		<g>
			<defs>
				<rect id="SVGID_13_" x="0.1" y="47.6" width="24.2" height="13.8"/>
			</defs>
			<clipPath id="SVGID_14_">
				<use xlink:href="#SVGID_13_"  style="overflow:visible;"/>
			</clipPath>
			<polygon class="st9" points="14.3,47.6 0.1,47.6 0.1,61.4 24.3,61.4 24.3,47.6 			"/>
		</g>
	</g>
	<polygon class="st0" points="24.3,47.6 24.3,61.4 40.5,61.4 40.5,47.6 24.3,47.6 	"/>
	<g class="st1">
		<g>
			<defs>
				<rect id="SVGID_15_" x="24.3" y="25.7" width="16.2" height="21.9"/>
			</defs>
			<clipPath id="SVGID_16_">
				<use xlink:href="#SVGID_15_"  style="overflow:visible;"/>
			</clipPath>
			<path class="st10" d="M24.3,25.7v21.9h16.2v-5.1C40.5,33.2,33.8,25.7,24.3,25.7"/>
		</g>
	</g>
	<rect x="50.2" y="0.1" class="st5" width="14.3" height="17.2"/>
	<g class="st1">
		<g>
			<defs>
				<rect id="SVGID_17_" x="50.2" y="17.3" width="14.3" height="30.4"/>
			</defs>
			<clipPath id="SVGID_18_">
				<use xlink:href="#SVGID_17_"  style="overflow:visible;"/>
			</clipPath>
			<path class="st11" d="M50.2,47.7c8.9,0,14.3-4.5,14.3-13.4v-17H50.2V47.7z"/>
		</g>
	</g>
	<g class="st1">
		<g>
			<defs>
				<rect id="SVGID_19_" x="24.3" y="0.1" width="25.9" height="17.2"/>
			</defs>
			<clipPath id="SVGID_20_">
				<use xlink:href="#SVGID_19_"  style="overflow:visible;"/>
			</clipPath>
			<polygon class="st12" points="48.6,0.1 24.3,0.1 24.3,17.3 49.4,17.3 50.2,17.3 50.2,0.1 			"/>
		</g>
	</g>
	<g class="st1">
		<g>
			<defs>
				<rect id="SVGID_21_" x="65" y="75.9" width="39.6" height="16.1"/>
			</defs>
			<clipPath id="SVGID_22_">
				<use xlink:href="#SVGID_21_"  style="overflow:visible;"/>
			</clipPath>
			<path class="st13" d="M81,76c-8.8,0-16,7.2-16,16.1c1.2,0,38.3,0,39.6,0V76C96.8,75.9,89,75.9,81,76"/>
		</g>
	</g>
</g>
<rect class="st14" width="112.6" height="114.7"/>
</svg>
